<svg width="200" height="74" viewBox="0 0 200 74" fill="none" xmlns="http://www.w3.org/2000/svg">
<g clip-path="url(#clip0)">
<path d="M25.954 49.5732V59.6454H24.672V50.6644H20.062V59.6454H18.78V49.5732H25.954Z" fill="white"/>
<path d="M28.1481 54.773C28.1481 53.8458 28.1181 53.1004 28.0901 52.4129H29.2541L29.3121 53.6539H29.3421C29.8721 52.7726 30.7121 52.249 31.8761 52.249C33.6001 52.249 34.8961 53.7279 34.8961 55.9241C34.8961 58.5241 33.3341 59.8091 31.6561 59.8091C30.7141 59.8091 29.8881 59.3914 29.4621 58.674H29.4321V62.6049H28.1501V54.773H28.1481ZM29.4301 56.6995C29.4301 56.8934 29.4601 57.0733 29.4881 57.2371C29.7241 58.1484 30.5041 58.7759 31.4321 58.7759C32.8021 58.7759 33.5981 57.6408 33.5981 55.9821C33.5981 54.5332 32.8461 53.2922 31.4761 53.2922C30.5921 53.2922 29.7681 53.9357 29.5161 54.9209C29.4721 55.0848 29.4281 55.2787 29.4281 55.4585V56.6995H29.4301Z" fill="white"/>
<path d="M42.98 55.9682C42.98 58.6421 41.154 59.8092 39.43 59.8092C37.5 59.8092 36.012 58.3743 36.012 56.0881C36.012 53.668 37.574 52.2471 39.548 52.2471C41.596 52.2471 42.98 53.7559 42.98 55.9682ZM37.324 56.0421C37.324 57.6269 38.222 58.8219 39.49 58.8219C40.728 58.8219 41.656 57.6409 41.656 56.0121C41.656 54.7871 41.052 53.2323 39.52 53.2323C37.986 53.2343 37.324 54.6672 37.324 56.0421Z" fill="white"/>
<path d="M44.688 52.4112H46.278L47.574 56.0563C47.75 56.5939 48.06 57.4752 48.222 58.0428H48.252C48.414 57.5052 48.812 56.3541 49.092 55.5627L50.24 52.4092H51.846L52.346 59.6415H51.108L50.946 56.1902C50.902 55.4128 50.842 54.4876 50.814 53.6062H50.77C50.578 54.2637 50.388 54.8473 49.99 55.9524L48.62 59.5976H47.678L46.412 56.0264C46.192 55.3389 45.882 54.2937 45.704 53.6202H45.646C45.616 54.4716 45.572 55.4288 45.528 56.2202L45.352 59.6415H44.158L44.688 52.4112Z" fill="white"/>
<path d="M55.2781 52.4111V54.8772C55.5581 54.8173 55.97 54.7873 56.442 54.7873C57.9741 54.7873 59.5201 55.4308 59.5201 57.2074C59.5201 57.9688 59.2401 58.4924 58.7841 58.8801C58.0041 59.5516 56.8541 59.7174 55.9121 59.7174C55.19 59.7174 54.528 59.6735 53.998 59.6135V52.4111H55.2781ZM55.2781 58.7322C55.5281 58.7622 55.8081 58.7921 56.1761 58.7921C57.1621 58.7921 58.2381 58.3745 58.2381 57.2533C58.2381 56.0883 57.2061 55.7285 56.2341 55.7285C55.8661 55.7285 55.5421 55.7585 55.2761 55.8025V58.7322H55.2781ZM61.7001 52.4111V59.6435H60.4181V52.4111H61.7001Z" fill="white"/>
<path d="M65.056 52.4111V58.6123H67.546V52.4111H68.812V58.6123H71.302V52.4111H72.584V59.6435H63.79V52.4111H65.056Z" fill="white"/>
<path d="M80.0361 52.4112V59.6435H78.7541V53.4424H76.3081V55.3249C76.3081 57.3573 76.1161 58.7163 75.1881 59.3298C74.8341 59.6136 74.4361 59.7774 73.7741 59.7774L73.6421 58.7462C73.8921 58.7023 74.1721 58.5963 74.3481 58.4465C75.0101 57.9528 75.0841 56.9376 75.0841 55.3229V52.4092H80.0361V52.4112Z" fill="white"/>
<path d="M82.8781 56.2659C82.9081 58.0445 84.0261 58.776 85.3241 58.776C86.2521 58.776 86.8121 58.6121 87.2981 58.4022L87.5181 59.3435C87.0621 59.5534 86.2801 59.7912 85.1461 59.7912C82.9521 59.7912 81.6401 58.3263 81.6401 56.146C81.6401 53.9637 82.9061 52.2471 84.9841 52.2471C87.3121 52.2471 87.9301 54.3234 87.9301 55.6544C87.9301 55.9242 87.9001 56.132 87.8861 56.2679H82.8781V56.2659ZM86.6781 55.3247C86.6921 54.4873 86.3401 53.1883 84.8801 53.1883C83.5701 53.1883 82.9941 54.4134 82.8921 55.3247H86.6781Z" fill="white"/>
<path d="M90.7861 52.4111V55.3249H94.1741V52.4111H95.4561V59.6435H94.1741V56.37H90.7861V59.6435H89.5042V52.4111H90.7861Z" fill="white"/>
<path d="M98.8279 52.4111V55.3249H102.216V52.4111H103.498V59.6435H102.216V56.37H98.8279V59.6435H97.5459V52.4111H98.8279Z" fill="white"/>
<path d="M109.566 59.6433L109.462 58.732H109.418C109.02 59.2996 108.254 59.8072 107.238 59.8072C105.794 59.8072 105.058 58.776 105.058 57.7308C105.058 55.9821 106.59 55.0269 109.344 55.0409V54.891C109.344 54.2935 109.182 53.2183 107.724 53.2183C107.062 53.2183 106.368 53.4281 105.868 53.7559L105.574 52.8886C106.162 52.5009 107.018 52.2471 107.916 52.2471C110.096 52.2471 110.626 53.7559 110.626 55.2048V57.9086C110.626 58.5361 110.656 59.1497 110.744 59.6413H109.566V59.6433ZM109.374 55.9522C107.96 55.9222 106.354 56.176 106.354 57.5809C106.354 58.4322 106.914 58.8359 107.576 58.8359C108.504 58.8359 109.094 58.2384 109.3 57.6249C109.344 57.491 109.374 57.3411 109.374 57.2072V55.9522Z" fill="white"/>
<path d="M117.916 59.6435H116.634V56.6099H115.676C115.13 56.6099 114.762 56.7598 114.482 57.0136C113.952 57.4472 113.76 58.3425 113.48 59.046C113.392 59.2698 113.288 59.4637 113.186 59.6435H111.802C111.964 59.4037 112.112 59.1359 112.244 58.8222C112.554 58.1207 112.73 57.1794 113.364 56.6399C113.584 56.446 113.85 56.2821 114.174 56.2222V56.1782C113.246 56.0743 112.288 55.4908 112.288 54.3856C112.288 53.6382 112.686 53.1306 113.23 52.8169C113.818 52.4731 114.688 52.3232 115.616 52.3232C116.47 52.3232 117.296 52.3972 117.914 52.4731V59.6435H117.916ZM116.636 53.2785C116.312 53.2345 116.018 53.2046 115.56 53.2046C114.676 53.2046 113.63 53.4584 113.63 54.4596C113.63 55.3868 114.764 55.7146 115.53 55.7146C116.06 55.7146 116.34 55.7146 116.634 55.7146V53.2785H116.636Z" fill="white"/>
<path d="M131.564 52.4112H133.154L134.45 56.0563C134.626 56.5939 134.936 57.4752 135.098 58.0428H135.128C135.29 57.5052 135.688 56.3541 135.968 55.5627L137.116 52.4092H138.722L139.222 59.6415H137.984L137.822 56.1902C137.778 55.4128 137.718 54.4876 137.69 53.6062H137.646C137.454 54.2637 137.264 54.8473 136.866 55.9524L135.496 59.5976H134.554L133.288 56.0264C133.068 55.3389 132.758 54.2937 132.582 53.6202H132.524C132.494 54.4716 132.45 55.4288 132.406 56.2202L132.23 59.6415H131.038L131.564 52.4112Z" fill="white"/>
<path d="M141.622 56.2662C141.652 58.0448 142.77 58.7762 144.068 58.7762C144.996 58.7762 145.556 58.6123 146.042 58.4025L146.262 59.3438C145.806 59.5536 145.024 59.7914 143.89 59.7914C141.696 59.7914 140.384 58.3266 140.384 56.1463C140.384 53.964 141.65 52.2473 143.728 52.2473C146.056 52.2473 146.674 54.3237 146.674 55.6546C146.674 55.9244 146.644 56.1323 146.63 56.2682H141.622V56.2662ZM145.422 55.3249C145.436 54.4876 145.084 53.1886 143.626 53.1886C142.316 53.1886 141.74 54.4136 141.638 55.3249H145.422Z" fill="white"/>
<path d="M153.67 49.9611C153.302 50.095 152.654 50.2149 152.182 50.2888C151.034 50.4687 150.194 50.8564 149.648 51.6477C149.192 52.3052 148.926 53.2765 148.868 54.0379H148.912C149.368 52.9927 150.37 52.4092 151.386 52.4092C153.138 52.4092 154.42 53.6802 154.42 55.9804C154.42 58.3405 153.212 59.8054 151.12 59.8054C148.616 59.8054 147.792 57.3693 147.792 54.9632C147.792 53.3204 148.13 51.9755 148.896 50.9583C149.588 49.9571 150.576 49.4934 151.96 49.2556C152.534 49.1657 153.242 49.0458 153.728 48.8679L153.67 49.9611ZM151.122 53.3824C150.356 53.3824 149.812 53.7861 149.516 54.3696C149.28 54.8033 149.162 55.3269 149.162 55.9084C149.162 57.1035 149.736 58.8221 151.15 58.8221C152.578 58.8221 153.11 57.4172 153.11 56.0883C153.112 54.9072 152.654 53.3824 151.122 53.3824Z" fill="white"/>
<path d="M156.778 56.2662C156.808 58.0448 157.926 58.7762 159.224 58.7762C160.152 58.7762 160.712 58.6123 161.198 58.4025L161.418 59.3438C160.962 59.5536 160.18 59.7914 159.046 59.7914C156.852 59.7914 155.54 58.3266 155.54 56.1463C155.54 53.964 156.806 52.2473 158.884 52.2473C161.212 52.2473 161.83 54.3237 161.83 55.6546C161.83 55.9244 161.8 56.1323 161.786 56.2682H156.778V56.2662ZM160.578 55.3249C160.592 54.4876 160.24 53.1886 158.782 53.1886C157.472 53.1886 156.896 54.4136 156.794 55.3249H160.578Z" fill="white"/>
<path d="M168.782 52.4112V59.6435H167.5V53.4424H165.054V55.3249C165.054 57.3573 164.862 58.7163 163.934 59.3298C163.58 59.6136 163.182 59.7774 162.52 59.7774L162.388 58.7462C162.638 58.7023 162.918 58.5963 163.094 58.4465C163.756 57.9528 163.83 56.9376 163.83 55.3229V52.4092H168.782V52.4112Z" fill="white"/>
<path d="M172.154 52.4111V54.8612C172.448 54.8013 172.95 54.7873 173.332 54.7873C174.938 54.7873 176.632 55.2949 176.632 57.2234C176.632 57.9708 176.338 58.4944 175.88 58.8821C175.1 59.5536 173.832 59.7194 172.786 59.7194C172.064 59.7194 171.402 59.6755 170.872 59.6155V52.4131H172.154V52.4111ZM172.154 58.7322C172.404 58.7622 172.684 58.7921 173.112 58.7921C174.084 58.7921 175.336 58.4644 175.336 57.2533C175.336 55.9983 174.04 55.7285 173.082 55.7285C172.744 55.7285 172.448 55.7585 172.154 55.8025V58.7322Z" fill="white"/>
<path d="M32.876 25.522H19.97V31.7931L25.806 32.1449V37.2609C24.94 37.6865 24.002 38.0143 22.98 38.2301C21.966 38.4559 20.862 38.5638 19.674 38.5638C18.908 38.5638 18.174 38.5059 17.482 38.38C16.782 38.2541 16.114 38.0622 15.47 37.8124C14.828 37.5866 14.226 37.3028 13.666 36.9511C13.106 36.5914 12.602 36.1817 12.158 35.7061C11.664 35.2544 11.244 34.7528 10.88 34.2013C10.518 33.6497 10.204 33.0482 9.93202 32.3947C9.66002 31.7432 9.46202 31.0397 9.33002 30.2963C9.20602 29.5429 9.14002 28.7575 9.14002 27.9301C9.14002 26.3254 9.38802 24.8705 9.88202 23.5656C10.154 22.8881 10.468 22.2706 10.822 21.709C11.176 21.1494 11.588 20.6299 12.058 20.1542C12.528 19.7026 13.038 19.3009 13.59 18.9512C14.142 18.5994 14.752 18.2997 15.42 18.0479C16.706 17.5463 18.14 17.2945 19.722 17.2945C20.588 17.2945 21.428 17.3524 22.236 17.4783C23.036 17.6042 23.802 17.7961 24.518 18.0479C25.26 18.3237 25.952 18.6574 26.604 19.0591C27.256 19.4608 27.856 19.9284 28.426 20.456L32.58 15.0382C31.74 14.2608 30.842 13.5834 29.884 13.0058C28.928 12.4283 27.93 11.9526 26.892 11.5769C25.804 11.2012 24.692 10.9154 23.546 10.7156C22.392 10.5237 21.206 10.4238 19.97 10.4238C18.56 10.4238 17.218 10.5417 15.94 10.7676C14.662 11.0014 13.468 11.3531 12.354 11.8287C11.242 12.3044 10.202 12.8579 9.24602 13.4934C8.28202 14.1209 7.40802 14.8404 6.61602 15.6418C5.85002 16.4451 5.15802 17.3065 4.55602 18.2417C3.95402 19.179 3.45202 20.1822 3.05602 21.2594C2.61002 22.3125 2.29002 23.3997 2.08402 24.5288C1.87002 25.6579 1.77002 26.827 1.77002 28.0321C1.77002 29.387 1.87802 30.666 2.10002 31.8791C2.31402 33.0821 2.63602 34.2292 3.05602 35.3064C3.47602 36.3855 3.99602 37.3808 4.60602 38.2821C5.20802 39.1933 5.90002 40.0207 6.66602 40.7741C7.43202 41.5275 8.28202 42.187 9.22202 42.7646C10.154 43.3421 11.168 43.8357 12.254 44.2354C13.342 44.6371 14.488 44.9369 15.7 45.1387C16.904 45.3386 18.164 45.4405 19.474 45.4405C20.76 45.4405 22.004 45.3485 23.216 45.1727C24.42 44.9968 25.582 44.739 26.694 44.3873C27.832 44.0356 28.92 43.5839 29.95 43.0324C30.988 42.4808 31.962 41.8293 32.876 41.0759V25.522ZM41.96 19.151H36.274V44.735H43.346V29.9865C43.594 29.2851 43.914 28.6396 44.318 28.064C44.714 27.4865 45.2 26.9769 45.768 26.5252C46.856 25.622 48.142 25.1703 49.626 25.1703C50.194 25.1703 50.738 25.2203 51.25 25.3042C51.77 25.3961 52.248 25.522 52.692 25.6719C53.162 25.8718 53.59 26.0896 53.986 26.3234C54.382 26.5572 54.744 26.825 55.066 27.1268L59.17 21.6091C58.7 21.1574 58.172 20.7478 57.58 20.3721C56.994 20.0043 56.352 19.6786 55.66 19.4028C54.968 19.127 54.25 18.9172 53.5 18.7673C52.758 18.6254 51.976 18.5495 51.16 18.5495C50.096 18.5495 49.108 18.6494 48.202 18.8512C47.304 19.0511 46.488 19.3529 45.77 19.7545C45.054 20.1802 44.41 20.6818 43.85 21.2674C43.282 21.8449 42.804 22.5124 42.408 23.2658L41.96 19.151ZM66.57 34.2512H84.966C85.04 33.9754 85.106 33.6996 85.156 33.4159C85.206 33.1401 85.238 32.8483 85.264 32.5465C85.364 31.945 85.412 31.3435 85.412 30.74C85.412 28.8834 85.116 27.2287 84.522 25.7738C84.226 25.0204 83.87 24.319 83.45 23.6755C83.03 23.024 82.544 22.4384 82 21.9109C81.48 21.3833 80.904 20.9076 80.26 20.49C79.618 20.0803 78.908 19.7286 78.142 19.4528C76.658 18.8512 75.026 18.5495 73.246 18.5495C72.208 18.5495 71.218 18.6334 70.27 18.8093C69.33 18.9851 68.424 19.2529 67.558 19.6027C66.718 19.9544 65.934 20.3641 65.218 20.8397C64.492 21.3153 63.826 21.8589 63.206 22.4624C62.612 23.064 62.094 23.7154 61.64 24.4269C61.178 25.1283 60.782 25.8977 60.436 26.7251C60.14 27.5524 59.908 28.4058 59.744 29.2831C59.58 30.1604 59.496 31.0637 59.496 31.993C59.496 32.9962 59.57 33.9494 59.726 34.8607C59.874 35.764 60.114 36.6334 60.434 37.4607C60.73 38.2881 61.102 39.0575 61.538 39.7609C61.984 40.4624 62.486 41.0979 63.054 41.6754C64.192 42.8285 65.626 43.7318 67.356 44.3853C68.222 44.711 69.136 44.9548 70.118 45.1047C71.09 45.2646 72.128 45.3386 73.242 45.3386C74.38 45.3386 75.468 45.2726 76.506 45.1467C77.544 45.0128 78.534 44.813 79.474 44.5352C80.414 44.2594 81.328 43.9077 82.226 43.466C83.116 43.0304 83.998 42.5048 84.864 41.8773L81.848 36.6593C80.686 37.4627 79.416 38.0642 78.04 38.4659C76.664 38.8676 75.196 39.0674 73.638 39.0674C71.512 39.0674 69.88 38.6158 68.742 37.7125C68.148 37.2609 67.67 36.7433 67.3 36.1657C66.94 35.5882 66.694 34.9527 66.57 34.2512ZM78.19 28.9833H66.766C66.988 28.3059 67.278 27.7043 67.632 27.1767C67.986 26.6492 68.424 26.1995 68.942 25.8218C69.436 25.4461 70.03 25.1623 70.714 24.9605C71.406 24.7686 72.182 24.6687 73.046 24.6687C73.912 24.6687 74.654 24.7686 75.288 24.9705C75.914 25.1703 76.434 25.4721 76.854 25.8738C77.274 26.2754 77.596 26.7351 77.818 27.2627C78.042 27.7783 78.166 28.3558 78.19 28.9833ZM151.774 18.5495C150.76 18.5495 149.788 18.6334 148.848 18.8093C147.916 18.9771 147.026 19.2269 146.186 19.5527C145.346 19.8784 144.562 20.2801 143.846 20.7398C143.12 21.2074 142.454 21.735 141.834 22.3125C141.216 22.8901 140.672 23.5336 140.202 24.235C139.732 24.9465 139.336 25.7239 139.016 26.5752C138.67 27.3786 138.414 28.2299 138.242 29.1252C138.07 30.0285 137.978 30.9638 137.978 31.943C137.978 32.9462 138.068 33.9075 138.242 34.8268C138.416 35.746 138.67 36.6074 139.016 37.4107C139.338 38.2641 139.734 39.0415 140.202 39.7509C140.672 40.4524 141.216 41.0979 141.834 41.6734C142.452 42.251 143.12 42.7606 143.846 43.2122C144.564 43.6639 145.346 44.0575 146.186 44.3833C147.026 44.709 147.916 44.9529 148.848 45.1027C149.788 45.2626 150.76 45.3366 151.774 45.3366C152.764 45.3366 153.72 45.2606 154.634 45.0947C155.548 44.9369 156.422 44.6851 157.264 44.3333C158.104 44.0316 158.888 43.6479 159.612 43.1882C160.338 42.7286 161.022 42.201 161.664 41.6255C162.258 41.0239 162.802 40.3704 163.288 39.661C163.766 38.9595 164.186 38.1901 164.532 37.3608C165.224 35.7061 165.57 33.8995 165.57 31.943C165.57 30.9398 165.488 29.9865 165.314 29.0753C165.14 28.172 164.878 27.3026 164.532 26.4753C163.89 24.8206 162.95 23.4157 161.714 22.2606C161.096 21.659 160.428 21.1315 159.702 20.6718C158.968 20.2202 158.178 19.8265 157.312 19.5007C156.472 19.175 155.59 18.9312 154.674 18.7813C153.752 18.6234 152.788 18.5495 151.774 18.5495ZM151.774 24.8685C152.812 24.8685 153.744 25.0284 154.56 25.3542C155.384 25.6719 156.102 26.1475 156.72 26.7751C157.314 27.4265 157.758 28.18 158.056 29.0413C158.352 29.8946 158.502 30.8639 158.502 31.943C158.502 33.0222 158.354 33.9994 158.056 34.8607C157.76 35.7301 157.314 36.4835 156.72 37.109C156.126 37.7605 155.418 38.2541 154.602 38.5798C153.778 38.9056 152.838 39.0655 151.776 39.0655C150.738 39.0655 149.806 38.9076 148.99 38.5798C148.166 38.2541 147.448 37.7605 146.83 37.109C146.212 36.4815 145.75 35.7301 145.454 34.8607C145.15 33.9994 145 33.0222 145 31.943C145 30.8898 145.148 29.9366 145.454 29.0833C145.75 28.2299 146.212 27.4785 146.83 26.825C147.424 26.1735 148.132 25.6799 148.948 25.3542C149.772 25.0284 150.71 24.8685 151.774 24.8685ZM173.812 19.151H168.174V44.735H175.246V30.0865C175.79 28.3818 176.63 27.0768 177.768 26.1735C178.312 25.7479 178.906 25.4201 179.556 25.2043C180.198 24.9785 180.908 24.8705 181.674 24.8705C182.44 24.8705 183.116 24.9785 183.71 25.2143C184.296 25.4481 184.79 25.7998 185.186 26.2754C185.632 26.7511 185.952 27.3366 186.166 28.0401C186.372 28.7415 186.47 29.5609 186.47 30.4902V44.737H193.492V29.8886C193.492 28.0321 193.252 26.4013 192.784 24.9984C192.306 23.5935 191.59 22.4145 190.624 21.4612C189.684 20.484 188.564 19.7565 187.254 19.2709C185.944 18.7953 184.444 18.5515 182.762 18.5515C181.798 18.5515 180.882 18.6514 180.034 18.8532C179.176 19.0531 178.386 19.3549 177.668 19.7565C176.926 20.1822 176.276 20.6838 175.706 21.2694C175.146 21.8469 174.676 22.5144 174.304 23.2678L173.812 19.151Z" fill="white"/>
<path d="M107.004 26.6253L109.822 21.2574C106.806 19.4509 103.196 18.5496 98.992 18.5496C97.186 18.5496 95.58 18.7414 94.178 19.1171C92.768 19.5008 91.574 20.0784 90.584 20.8558C89.62 21.6092 88.894 22.4865 88.4 23.4977C87.914 24.5009 87.666 25.646 87.666 26.925C87.666 28.1041 87.838 29.1573 88.186 30.0686C88.532 30.9878 89.052 31.7652 89.744 32.3927C90.436 33.0203 91.268 33.5299 92.232 33.9235C93.188 34.3172 94.292 34.575 95.528 34.7009L101.214 35.3524C101.684 35.4024 102.088 35.4783 102.434 35.5703C102.78 35.6702 103.068 35.7801 103.292 35.904C103.514 36.0539 103.68 36.2377 103.778 36.4636C103.886 36.6814 103.934 36.9312 103.934 37.207C103.934 37.5587 103.826 37.8585 103.604 38.1263C103.39 38.3861 103.068 38.6119 102.648 38.8117C102.228 38.9616 101.676 39.0875 100.984 39.1794C100.3 39.2634 99.484 39.3133 98.544 39.3133C97.752 39.3133 96.97 39.2634 96.204 39.1714C95.438 39.0715 94.688 38.9376 93.946 38.7618C93.204 38.5859 92.462 38.3361 91.72 38.0263C90.978 37.7086 90.236 37.3329 89.494 36.9052L86.824 42.2231C87.738 42.8006 88.662 43.3022 89.594 43.7119C90.526 44.1216 91.448 44.4313 92.364 44.6312C93.278 44.881 94.244 45.0569 95.248 45.1668C96.262 45.2847 97.308 45.3346 98.396 45.3346C100.35 45.3346 102.08 45.1508 103.596 44.7751C105.104 44.4074 106.406 43.8558 107.494 43.1284C108.606 42.3749 109.44 41.4736 109.984 40.4185C110.536 39.3653 110.808 38.1602 110.808 36.8073C110.808 35.5783 110.61 34.4991 110.206 33.5798C109.81 32.6525 109.2 31.8911 108.384 31.2896C107.568 30.6881 106.604 30.1865 105.482 29.7928C104.37 29.3911 103.092 29.1073 101.658 28.9315L96.862 28.3799C96.096 28.28 95.526 28.0781 95.148 27.7863C94.778 27.4846 94.588 27.1009 94.588 26.6253C94.588 25.9478 94.942 25.4462 95.66 25.1124C96.376 24.7787 97.456 24.6188 98.89 24.6188C100.374 24.6188 101.792 24.7787 103.152 25.1124C104.506 25.4462 105.792 25.9478 107.004 26.6253ZM132.554 26.6253L135.372 21.2574C132.356 19.4509 128.746 18.5496 124.542 18.5496C122.736 18.5496 121.13 18.7414 119.728 19.1171C118.318 19.5008 117.124 20.0784 116.134 20.8558C115.17 21.6092 114.444 22.4865 113.95 23.4977C113.464 24.5009 113.216 25.646 113.216 26.925C113.216 28.1041 113.388 29.1573 113.736 30.0686C114.082 30.9878 114.602 31.7652 115.294 32.3927C115.986 33.0203 116.818 33.5299 117.782 33.9235C118.738 34.3172 119.842 34.575 121.078 34.7009L126.764 35.3524C127.234 35.4024 127.638 35.4783 127.984 35.5703C128.33 35.6702 128.618 35.7801 128.842 35.904C129.064 36.0539 129.23 36.2377 129.328 36.4636C129.436 36.6814 129.484 36.9312 129.484 37.207C129.484 37.5587 129.376 37.8585 129.154 38.1263C128.94 38.3861 128.618 38.6119 128.198 38.8117C127.778 38.9616 127.226 39.0875 126.534 39.1794C125.85 39.2634 125.034 39.3133 124.094 39.3133C123.302 39.3133 122.52 39.2634 121.754 39.1714C120.988 39.0715 120.238 38.9376 119.496 38.7618C118.754 38.5859 118.012 38.3361 117.27 38.0263C116.528 37.7086 115.786 37.3329 115.044 36.9052L112.374 42.2231C113.288 42.8006 114.212 43.3022 115.144 43.7119C116.076 44.1216 116.998 44.4313 117.914 44.6312C118.828 44.881 119.794 45.0569 120.798 45.1668C121.812 45.2847 122.858 45.3346 123.946 45.3346C125.9 45.3346 127.63 45.1508 129.146 44.7751C130.654 44.4074 131.956 43.8558 133.044 43.1284C134.156 42.3749 134.99 41.4736 135.534 40.4185C136.086 39.3653 136.358 38.1602 136.358 36.8073C136.358 35.5783 136.16 34.4991 135.756 33.5798C135.36 32.6525 134.75 31.8911 133.934 31.2896C133.118 30.6881 132.154 30.1865 131.032 29.7928C129.92 29.3911 128.642 29.1073 127.208 28.9315L122.412 28.3799C121.646 28.28 121.076 28.0781 120.698 27.7863C120.328 27.4846 120.138 27.1009 120.138 26.6253C120.138 25.9478 120.492 25.4462 121.21 25.1124C121.926 24.7787 123.006 24.6188 124.44 24.6188C125.924 24.6188 127.342 24.7787 128.7 25.1124C130.056 25.4462 131.342 25.9478 132.554 26.6253Z" fill="white"/>
<path d="M195.206 12.6422C195.206 15.1422 193.272 17.1047 190.754 17.1047C188.264 17.1047 186.276 15.1422 186.276 12.6422C186.276 10.1961 188.264 8.23364 190.754 8.23364C193.272 8.23564 195.206 10.1961 195.206 12.6422ZM187.39 12.6422C187.39 14.6047 188.82 16.1635 190.782 16.1635C192.69 16.1635 194.094 14.6047 194.094 12.6702C194.094 10.7077 192.69 9.12295 190.756 9.12295C188.82 9.12095 187.39 10.7077 187.39 12.6422ZM190.066 14.9544H189.06V10.5458C189.458 10.4659 190.014 10.4119 190.73 10.4119C191.552 10.4119 191.922 10.5458 192.24 10.7337C192.478 10.9215 192.664 11.2713 192.664 11.7009C192.664 12.1846 192.294 12.5603 191.764 12.7221V12.7761C192.188 12.938 192.426 13.2597 192.558 13.8513C192.69 14.5227 192.77 14.7925 192.876 14.9524H191.79C191.658 14.7905 191.578 14.3888 191.446 13.8772C191.366 13.3936 191.102 13.1778 190.546 13.1778H190.07V14.9544H190.066ZM190.092 12.4543H190.568C191.124 12.4543 191.574 12.2665 191.574 11.8089C191.574 11.4052 191.282 11.1374 190.646 11.1374C190.382 11.1374 190.196 11.1634 190.09 11.1913V12.4543H190.092Z" fill="white"/>
</g>
<defs>
<clipPath id="clip0">
<rect width="200" height="73.1429" fill="white"/>
</clipPath>
</defs>
</svg>
