<svg width="40" height="40" viewBox="0 0 40 40" fill="none" xmlns="http://www.w3.org/2000/svg">
<circle cx="20" cy="20" r="20" fill="#101010"/>
<path d="M26.5448 23.0387C26.382 22.876 26.1183 22.876 25.9556 23.0387L20.4168 28.5775V10.4167C20.4168 10.1864 20.2305 10 20.0001 10C19.7698 10 19.5835 10.1864 19.5835 10.4167V28.5775L14.0448 23.0387C13.882 22.876 13.6183 22.876 13.4556 23.0387C13.2928 23.2015 13.2928 23.4652 13.4556 23.6279L19.7056 29.8779C19.7869 29.9593 19.8936 30 20.0002 30C20.1068 30 20.2134 29.9593 20.2948 29.8779L26.5448 23.6279C26.7075 23.4652 26.7075 23.2015 26.5448 23.0387Z" fill="#F0F0F0"/>
</svg>
