<svg width="16" height="16" viewBox="0 0 16 16" fill="none" xmlns="http://www.w3.org/2000/svg">
<path d="M8 0C3.58175 0 0 3.58175 0 8C0 12.4182 3.58175 16 8 16C12.4182 16 16 12.4182 16 8C15.995 3.58385 12.4162 0.00502232 8 0ZM11.6366 6.38365L10.0202 8C9.5399 8.47907 8.78906 8.55497 8.22252 8.18136L8.18136 8.22252C8.55497 8.78906 8.47907 9.5399 8 10.0202L6.38365 11.6366C5.82506 12.1903 4.92397 12.1883 4.36789 11.6321C3.81166 11.076 3.80971 10.1749 4.36342 9.61635L5.97977 8C6.4601 7.52093 7.21094 7.44503 7.77748 7.81864L7.81864 7.77748C7.44503 7.21094 7.52093 6.4601 8 5.97977L9.61635 4.36342C10.1749 3.80971 11.076 3.81166 11.6321 4.36789C12.1883 4.92397 12.1903 5.82506 11.6366 6.38365Z" fill="#F0F0F0"/>
<path d="M10.6261 4.5166C10.3987 4.51604 10.1805 4.60644 10.0201 4.76772L8.4039 6.38365C8.14888 6.64076 8.08303 7.03027 8.239 7.35686L8.80792 6.78795C8.91995 6.67969 9.09824 6.68122 9.20845 6.79143C9.31866 6.90165 9.3202 7.07994 9.21194 7.19196L8.64302 7.76088C8.96961 7.91685 9.35912 7.851 9.61624 7.59598L11.2322 5.97977C11.4773 5.73451 11.5505 5.36593 11.4179 5.04576C11.2853 4.72545 10.9728 4.5166 10.6261 4.5166Z" fill="#F0F0F0"/>
<path d="M7.19185 9.21205C7.07983 9.32031 6.90154 9.31877 6.79132 9.20856C6.68111 9.09835 6.67958 8.92006 6.78784 8.80803L7.35647 8.23912C7.0303 8.08008 6.63912 8.14634 6.38354 8.40402L4.76761 10.0202C4.43293 10.355 4.43293 10.8976 4.76761 11.2323C5.10676 11.5559 5.64038 11.5559 5.97966 11.2323L7.59587 9.61635C7.85089 9.35923 7.91674 8.96972 7.76077 8.64313L7.19185 9.21205Z" fill="#F0F0F0"/>
</svg>
