<svg width="40" height="40" viewBox="0 0 40 40" fill="none" xmlns="http://www.w3.org/2000/svg">
<rect x="0.5" y="0.5" width="39" height="39" stroke="#FCD6E8"/>
<g clip-path="url(#clip0)">
<path d="M17.8738 19.2798C18.3719 19.0293 18.7484 18.7503 19.0064 18.4488C19.4654 17.9057 19.692 17.1857 19.692 16.2931C19.692 15.4245 19.4654 14.6819 19.0124 14.0594C18.2563 13.0453 16.9767 12.5263 15.1676 12.4993H8V27.13H14.683C15.4361 27.13 16.1337 27.0655 16.7787 26.9334C17.4238 26.7999 17.9818 26.5554 18.4544 26.1984C18.8744 25.8879 19.2254 25.5023 19.5044 25.0478C19.9455 24.3607 20.166 23.5822 20.166 22.7151C20.166 21.875 19.9725 21.1595 19.5885 20.5714C19.1999 19.9834 18.6299 19.5528 17.8738 19.2798ZM10.9567 15.0405H14.185C14.8946 15.0405 15.4796 15.117 15.9387 15.2685C16.4697 15.489 16.7352 15.9375 16.7352 16.6216C16.7352 17.2352 16.5327 17.6642 16.1322 17.9057C15.7286 18.1472 15.2051 18.2687 14.563 18.2687H10.9567V15.0405ZM16.0617 24.3337C15.7046 24.5063 15.2021 24.5918 14.5585 24.5918H10.9567V20.6899H14.608C15.2441 20.6944 15.7391 20.7784 16.0932 20.936C16.7232 21.221 17.0367 21.743 17.0367 22.5066C17.0367 23.4067 16.7127 24.0127 16.0617 24.3337Z" fill="#FCD6E8"/>
<path d="M29.6932 13.1819H23.3372V15.003H29.6932V13.1819Z" fill="#FCD6E8"/>
<path d="M31.9015 20.369C31.7695 19.5215 31.4785 18.7759 31.0254 18.1323C30.5289 17.4033 29.8988 16.8692 29.1323 16.5317C28.3687 16.1927 27.5091 16.0232 26.5521 16.0247C24.9454 16.0247 23.6403 16.5272 22.6307 17.5248C21.6242 18.5254 21.1201 19.964 21.1201 21.8391C21.1201 23.8388 21.6767 25.2834 22.7958 26.17C23.9103 27.0581 25.1974 27.5006 26.6586 27.5006C28.4272 27.5006 29.8028 26.974 30.7854 25.924C31.4139 25.2609 31.7695 24.6084 31.8475 23.9678H28.9192C28.7497 24.2843 28.5532 24.5319 28.3282 24.7119C27.9202 25.0419 27.3891 25.2069 26.7381 25.2069C26.1185 25.2069 25.5935 25.0704 25.1554 24.7989C24.4324 24.3638 24.0544 23.6018 24.0064 22.5172H31.9975C32.0095 21.5826 31.9795 20.8641 31.9015 20.369ZM24.0784 20.6495C24.1834 19.946 24.4384 19.3879 24.8434 18.9754C25.2485 18.5644 25.8215 18.3574 26.5551 18.3559C27.2316 18.3559 27.7972 18.5494 28.2577 18.9379C28.7122 19.3294 28.9688 19.898 29.0213 20.6495H24.0784Z" fill="#FCD6E8"/>
</g>
<defs>
<clipPath id="clip0">
<rect x="8" y="12" width="24" height="16" fill="white"/>
</clipPath>
</defs>
</svg>
