<svg width="40" height="40" viewBox="0 0 40 40" fill="none" xmlns="http://www.w3.org/2000/svg">
<rect x="0.5" y="0.5" width="39" height="39" stroke="#FCD6E8"/>
<path d="M22.407 20.7236C23.1916 22.7089 23.7743 24.7527 24.153 26.8407C24.6931 26.5113 25.198 26.1156 25.6569 25.6569C26.8488 24.4648 27.6179 22.9629 27.8896 21.3328C26.7187 20.8484 25.4364 20.5803 24.0925 20.5803C23.5181 20.5803 22.9551 20.6299 22.407 20.7236Z" fill="#FCD6E8"/>
<path d="M25.6635 14.35C25.6611 14.3478 25.6589 14.3453 25.6567 14.3431C24.1456 12.8322 22.1367 12 19.9999 12C19.1643 12 18.3483 12.1278 17.574 12.3732C18.8151 13.9281 19.9069 15.5875 20.8425 17.3413C22.6052 16.5929 24.2289 15.5789 25.6635 14.35Z" fill="#FCD6E8"/>
<path d="M26.2921 15.0581C24.7872 16.3507 23.1056 17.3982 21.2756 18.181C21.5454 18.7241 21.8002 19.2759 22.0406 19.8358C22.7122 19.708 23.3973 19.6428 24.0925 19.6428C25.4391 19.6428 26.7488 19.885 27.9916 20.3617C27.9969 20.2416 28 20.1211 28 20.0001C28 18.1847 27.3992 16.4619 26.2921 15.0581Z" fill="#FCD6E8"/>
<path d="M15.0759 26.3061C16.4764 27.4043 18.1925 27.9999 20.0001 27.9999C21.149 27.9999 22.2609 27.7589 23.2783 27.3016C22.897 25.0919 22.2864 22.9598 21.4717 20.9307C18.6405 21.7034 16.308 23.6958 15.0759 26.3061Z" fill="#FCD6E8"/>
<path d="M19.8487 20.4999C20.2602 20.3258 20.6797 20.1783 21.1057 20.057C20.8809 19.5421 20.6423 19.0345 20.3914 18.5342C18.2301 19.3367 15.9575 19.7433 13.623 19.7433C13.0807 19.7433 12.5419 19.7209 12.007 19.6772C12.0027 19.7845 12 19.8922 12 20.0002C12 22.1371 12.8322 24.146 14.3431 25.657C14.3436 25.6575 14.3442 25.658 14.3447 25.6584C14.8673 24.6162 15.5508 23.6689 16.3835 22.8361C17.3846 21.8351 18.5504 21.0491 19.8487 20.4999Z" fill="#FCD6E8"/>
<path d="M19.9529 17.6919C19.0035 15.9337 17.8928 14.2749 16.641 12.7351C15.7974 13.1259 15.0201 13.666 14.3431 14.343C13.1327 15.5535 12.3584 17.0836 12.0981 18.743C12.6011 18.7842 13.1096 18.8055 13.623 18.8055C15.845 18.8055 17.9769 18.4122 19.9529 17.6919Z" fill="#FCD6E8"/>
</svg>
