<svg width="40" height="40" viewBox="0 0 40 40" fill="none" xmlns="http://www.w3.org/2000/svg">
<g clip-path="url(#clip0)">
<path d="M27.9961 28V27.9993H28.0001V22.1313C28.0001 19.2606 27.3821 17.0493 24.0261 17.0493C22.4128 17.0493 21.3301 17.9346 20.8881 18.774H20.8414V17.3173H17.6594V27.9993H20.9728V22.71C20.9728 21.3173 21.2368 19.9706 22.9614 19.9706C24.6608 19.9706 24.6861 21.56 24.6861 22.7993V28H27.9961Z" fill="#FCD6E8"/>
<path d="M12.2639 17.3179H15.5812V27.9999H12.2639V17.3179Z" fill="#FCD6E8"/>
<path d="M13.9213 12C12.8607 12 12 12.8607 12 13.9213C12 14.982 12.8607 15.8607 13.9213 15.8607C14.982 15.8607 15.8427 14.982 15.8427 13.9213C15.842 12.8607 14.9813 12 13.9213 12V12Z" fill="#FCD6E8"/>
</g>
<rect x="0.5" y="0.5" width="39" height="39" stroke="#FCD6E8"/>
<defs>
<clipPath id="clip0">
<rect x="12" y="12" width="16" height="16" fill="white"/>
</clipPath>
</defs>
</svg>
