<svg width="40" height="40" viewBox="0 0 40 40" fill="none" xmlns="http://www.w3.org/2000/svg">
<rect x="0.5" y="0.5" width="39" height="39" stroke="#FCD6E8"/>
<g clip-path="url(#clip0)">
<path d="M18.2781 22.1206L18.0135 25.8433C18.3921 25.8433 18.5561 25.6806 18.7528 25.4853L20.5281 23.7886L24.2068 26.4826C24.8815 26.8586 25.3568 26.6606 25.5388 25.8619L27.9535 14.5473L27.9541 14.5466C28.1681 13.5493 27.5935 13.1593 26.9361 13.4039L12.7428 18.8379C11.7741 19.2139 11.7888 19.7539 12.5781 19.9986L16.2068 21.1273L24.6355 15.8533C25.0321 15.5906 25.3928 15.7359 25.0961 15.9986L18.2781 22.1206Z" fill="#FCD6E8"/>
</g>
<defs>
<clipPath id="clip0">
<rect x="12" y="12" width="16" height="16" fill="white"/>
</clipPath>
</defs>
</svg>
