<svg width="40" height="40" viewBox="0 0 40 40" fill="none" xmlns="http://www.w3.org/2000/svg">
<circle cx="20" cy="20" r="20" fill="#F0F0F0"/>
<path d="M26.5445 23.0387C26.3817 22.876 26.1181 22.876 25.9553 23.0387L20.4166 28.5775V10.4167C20.4166 10.1864 20.2302 10 19.9999 10C19.7696 10 19.5832 10.1864 19.5832 10.4167V28.5775L14.0445 23.0387C13.8817 22.876 13.6181 22.876 13.4553 23.0387C13.2926 23.2015 13.2926 23.4652 13.4553 23.6279L19.7053 29.8779C19.7867 29.9593 19.8933 30 19.9999 30C20.1065 30 20.2131 29.9593 20.2945 29.8779L26.5445 23.6279C26.7072 23.4652 26.7072 23.2015 26.5445 23.0387Z" fill="#181818"/>
</svg>
