<svg width="150" height="42" viewBox="0 0 150 42" fill="none" xmlns="http://www.w3.org/2000/svg">
<g clip-path="url(#clip0)">
<path d="M61.2111 31.3717H51.8787V25.944L45.3842 31.3717H33.3091V8.11658H42.6415V23.6065H51.877V8.11658H61.2094V31.3717H61.2111Z" fill="#F0F0F0"/>
<path d="M67.3179 26.649L77.6609 15.8808H62.9883V8.11407H78.2372L88.677 16.7628L78.4309 26.4277L88.7739 36.6208L82.1358 42.0048L67.3179 26.649Z" fill="#F0F0F0"/>
<path d="M116.674 31.3708H107.342V25.9431L100.847 31.3708H88.7722V8.11569H98.1046V23.6056H107.34V8.11569H116.673V31.3708H116.674Z" fill="#F0F0F0"/>
<path d="M58.055 42.0032V37.7951L4.52601 37.9922V4.40024L145.456 4.20316V37.9372H99.8729V41.903H150.056V-0.00491333L-0.0742188 0.192164V42.2002L58.055 42.0032Z" fill="#F0F0F0"/>
</g>
<defs>
<clipPath id="clip0">
<rect width="150" height="42" fill="white"/>
</clipPath>
</defs>
</svg>
